<?xml version="1.0" encoding="utf-8"?>
<!-- Generator: Adobe Illustrator 19.0.0, SVG Export Plug-In . SVG Version: 6.00 Build 0)  -->
<svg version="1.1" id="Capa_1" xmlns="http://www.w3.org/2000/svg" xmlns:xlink="http://www.w3.org/1999/xlink" x="0px" y="0px"
	 viewBox="0 0 566.9 131.5" style="enable-background:new 0 0 566.9 131.5;" xml:space="preserve">
<style type="text/css">
	.st0{fill-rule:evenodd;clip-rule:evenodd;fill:#FFFFFF;}
	.st1{fill:#FFFFFF;}
	.st2{fill:none;stroke:#FFFFFF;stroke-width:2;stroke-miterlimit:10;}
</style>
<g>
	<path class="st0" d="M354.4,107.7h1.6c0-0.8,0-2.1,0-3.8c0-1.8,0-4-0.1-6.4c0-2.5,0-5.2-0.1-8c0-2.9,0-5.8-0.1-8.6
		c0-2.8,0-5.5,0-8.1c0-2.7,0-5,0-6.9c0-2.2,0.1-5.1,0.2-8.8c0.2-3.7,0.3-7.4,0.5-11.2c0.2-3.8,0.4-7.4,0.6-10.7
		c0.2-3.4,0.4-5.9,0.6-7.5c-1.5,0.4-2.7,0.6-3.7,0.6c-1.1,0-2.4-0.2-3.9-0.6c0.4,6.7,0.6,13.9,0.7,21.5c0.2,7.5,0.2,15.3,0.2,23.3
		V88c-3.5-3.5-7.6-7.7-12.3-12.7c-4.6-5-9.6-10.3-14.9-15.9c-5.2-5.6-10.4-11.3-15.8-17c-5.3-5.8-10.2-11.2-14.9-16.2h-1.8
		c0.2,2.6,0.2,6.5,0.2,11.8c0.1,5.3,0.1,11.5,0.1,18.9c0,2.5,0,5.4-0.1,8.6c-0.1,3.2-0.2,6.5-0.3,9.8c-0.1,3.4-0.2,6.7-0.5,10.1
		c-0.2,3.4-0.3,6.5-0.5,9.4c-0.2,2.8-0.3,5.3-0.6,7.3c-0.2,2.1-0.3,3.5-0.5,4.2c1.3-0.2,2.7-0.2,4.2-0.2c1.4,0,2.8,0.1,4,0.2
		c-0.1-0.6-0.2-1.8-0.2-3.4c-0.1-1.8-0.2-3.8-0.2-6.1c-0.1-2.3-0.2-4.8-0.2-7.4c-0.1-2.7-0.2-5.3-0.2-7.9c0-2.6,0-5.1-0.1-7.4
		c0-2.4,0-4.3,0-5.9c0-6.2,0-11.1,0.1-14.6c0.1-3.6,0.2-6.4,0.2-8.6c9.9,10.5,19.8,21.1,29.7,31.8
		C336.3,87.2,345.6,97.6,354.4,107.7"/>
	<path class="st0" d="M387.3,76.9V57.3c0-4.1,0-8.2,0.1-12.1c0.2-4,0.3-7.9,0.6-11.5c2.4-0.3,5-0.6,8-0.8c3-0.2,6.2-0.3,9.6-0.3
		c4.7,0,9.1,0.5,13,1.5c4,0.9,7.4,2.6,10.2,5.1c2.9,2.4,5.1,5.8,6.7,10.1c1.7,4.3,2.5,9.7,2.5,16.3c0,7.5-1.1,13.7-3.2,18.5
		c-2.1,4.7-4.8,8.5-8.1,11.2c-3.3,2.7-7,4.6-11.2,5.6c-4.2,1-8.4,1.5-12.6,1.5c-2.9,0-5.7-0.1-8.5-0.2c-2.7-0.2-4.9-0.5-6.5-0.9
		C387.5,93.3,387.3,85.2,387.3,76.9 M377.9,57.3v19.7c0,5-0.1,10-0.3,14.9c-0.2,4.9-0.3,9.7-0.6,14.4c2.6-0.2,5.1-0.2,7.7-0.2
		c2.5,0,5.1,0,7.7,0c2.6,0,5.1,0,7.7,0.1c2.5,0.1,5.1,0.1,7.7,0.1c4.5,0,9.2-0.6,14.1-1.9c5-1.4,9.5-3.7,13.5-6.9
		c4.1-3.2,7.5-7.4,10.1-12.6c2.7-5.3,4-11.7,4-19.3c0-5.9-0.7-11.1-2.2-15.8c-1.4-4.7-3.6-8.7-6.6-11.9c-3-3.3-7-5.8-11.8-7.5
		c-4.7-1.8-10.4-2.6-17.2-2.6c-2.9,0-5.8,0.1-8.7,0.3c-2.8,0.2-5.7,0.2-8.6,0.2c-2.9,0-5.8,0-8.7-0.1c-2.8-0.2-5.7-0.3-8.6-0.5
		c0.2,5,0.4,10,0.6,14.9C377.8,47.3,377.9,52.2,377.9,57.3z"/>
	<path class="st0" d="M465.8,57.2v19.7c0,5-0.1,10-0.3,14.9c-0.2,4.8-0.3,9.6-0.6,14.5c3.5-0.2,7-0.2,10.4-0.2c3.4,0,6.9,0,10.4,0
		c3.5,0,6.9,0,10.3,0c3.4,0,6.9,0.1,10.3,0.2c-0.2-0.8-0.3-1.8-0.3-3c0-0.5,0-1.1,0-1.7c0.1-0.7,0.2-1.3,0.3-1.8
		c-1.8,0.4-4,0.7-6.5,0.9c-2.4,0.2-5.1,0.3-7.9,0.5c-2.7,0.1-5.6,0.1-8.5,0.1c-2.8,0-5.5,0-8,0c-0.1-1.4-0.2-3.6-0.2-6.4
		c0-2.8,0-6.4,0-10.7v-6.9v-4.5c0-1.2,0-2.2,0-3c0.1-0.8,0.1-1.6,0.1-2.3c1.4,0,3.2,0,5.5,0.1c2.4,0,4.8,0,7.4,0.1
		c2.7,0,5.3,0.1,7.9,0.2c2.7,0.2,5,0.3,7,0.6c-0.2-1.1-0.3-2.3-0.3-3.4c0-1.2,0.1-2.4,0.3-3.5c-1.7,0.2-3.5,0.3-5.4,0.5
		c-1.8,0.1-3.8,0.2-6.1,0.3c-2.2,0.1-4.6,0.2-7.3,0.2c-2.7,0.1-5.7,0.1-9,0.1c0-1.4,0-3.6-0.1-6.4c0-2.8,0-5.7,0-8.7
		c0-2.8,0-5.3,0.1-7.5c0.2-2.2,0.3-4.5,0.3-7c3.7,0,6.9,0.1,9.6,0.2c2.7,0.1,5.1,0.2,7.3,0.3c2.3,0.2,4.4,0.3,6.4,0.5
		c2.1,0.2,4.3,0.3,6.7,0.5c-0.2-1.1-0.3-2.3-0.3-3.4c0-1.1,0.1-2.3,0.3-3.4c-3.4,0.2-6.8,0.3-10.2,0.5c-3.4,0.1-6.7,0.1-10.2,0.1
		s-6.9,0-10.3-0.1c-3.4-0.2-6.7-0.3-10.2-0.5c0.2,4.9,0.4,9.8,0.6,14.6C465.7,47.2,465.8,52.1,465.8,57.2"/>
	<path class="st0" d="M521.9,57.3v19.7c0,5-0.1,10-0.3,14.9c-0.2,4.9-0.3,9.7-0.6,14.4c3.7-0.2,7.2-0.2,10.5-0.2c3.4,0,7,0,10.6,0
		c3.5,0,7,0,10.5,0c3.5,0,7,0.1,10.5,0.2c-0.4-1.2-0.6-2.2-0.6-3.1c0-0.9,0.2-2.1,0.6-3.4c-5.7,0.8-11.1,1.2-16,1.4
		c-5,0.1-10.1,0.1-15.5,0.1c-0.1-5.6-0.2-11.9-0.2-18.9c-0.1-7.1-0.1-15.4-0.1-25c0-5,0.1-9.9,0.2-14.7c0.2-4.9,0.5-9.8,0.7-14.9
		c-1,0.2-1.9,0.3-2.9,0.5c-0.9,0.1-1.8,0.1-2.7,0.1c-0.9,0-1.8,0-2.7-0.1c-0.9-0.2-1.9-0.3-2.9-0.5c0.2,5,0.4,10,0.6,14.9
		C521.8,47.3,521.9,52.2,521.9,57.3"/>
	<path class="st0" d="M277.9,106.2c-1.1-0.2-2.1-0.2-3.1-0.2c-0.9,0-1.9,0-3,0c-1.1,0-2.1,0-3.1,0c-0.9,0-1.9,0.1-3,0.2
		c-0.5-1.8-1.3-3.8-2.2-6.3c-0.9-2.5-1.9-5.1-3.1-7.8c-1.1-2.7-2.2-5.5-3.3-8.2c-1.1-2.8-2.2-5.5-3.2-8c-2.4-0.1-4.9-0.1-7.4-0.1
		c-2.5-0.1-5-0.1-7.5-0.1c-2.4,0-4.7,0-7,0.1c-2.3,0-4.6,0-7,0.1c-2.4,5.9-4.6,11.6-6.6,17c-2,5.3-3.5,9.8-4.5,13.3
		c-1.3-0.2-2.7-0.2-4.2-0.2c-1.5,0-2.9,0.1-4.2,0.2c6.2-13.3,12.2-26.6,18.1-39.8c5.9-13.2,11.8-26.6,17.7-40.2h2.2
		c1.8,4.4,3.8,9.2,5.9,14.4c2.1,5.1,4.3,10.3,6.5,15.5c2.2,5.3,4.4,10.5,6.6,15.7c2.2,5.2,4.3,10,6.2,14.5c2,4.4,3.7,8.4,5.3,11.9
		C275.6,101.7,276.9,104.4,277.9,106.2 M227.3,70.7c2,0,4,0,6.2,0.1c2.1,0.1,4.2,0.1,6.2,0.1c2.1,0,4.3,0,6.4,0
		c2.1-0.1,4.3-0.2,6.4-0.2l-12.7-29L227.3,70.7z"/>
	<path class="st1" d="M85.5,35.4C106.3,10.1,146-4.6,166.7,9.2c21,14,21.3,46.3,0.8,72.2c-9.5,12-20.3,21.5-31.5,27.6
		c8.2-4.7,15.8-11.2,22.2-19.3c20.5-25.9,20.2-58.2-0.8-72.2C137.5,4.3,106.2,12.3,85.5,35.4"/>
	<path class="st2" d="M85.5,35.4c20.7-23,52-31.1,71.9-17.8c21,14,21.3,46.3,0.8,72.2c-6.4,8.1-14.1,14.6-22.2,19.3
		c-13.3,7.7-27.9,10.5-40.4,7.7c13.2,0.1,28.1-7.2,38.3-20c14.8-18.7,14.4-42.1-1-52.3C117.5,34.1,93.1,41,78.3,59.6
		c-6.6,8.3-10.1,17.5-10.7,26.1c-2-14.5,2.9-31.6,14.7-46.6C83.3,37.9,84.4,36.6,85.5,35.4"/>
	<path class="st1" d="M101.9,96.2c-20.5,25.9-61.7,41.7-82.7,27.7c-21-14-21.3-46.3-0.8-72.2c10-12.6,21.4-22.5,33.2-28.5
		c-8.8,4.8-17,11.6-23.9,20.2c-20.5,25.9-20.2,58.2,0.8,72.2c20.7,13.8,53.8,4.5,74.4-20.7C102.6,95.3,102.2,95.8,101.9,96.2"/>
	<path class="st2" d="M27.7,43.4c6.8-8.6,15.1-15.4,23.9-20.2c12.8-7,26.8-9.5,38.8-6.8c-13.2-0.1-28.1,7.2-38.3,20
		c-14.8,18.7-14.4,42.1,1,52.3c15.3,10.2,39.8,3.4,54.6-15.3c6.6-8.3,10.1-17.5,10.7-26.1c2,14.5-2.9,31.6-14.7,46.6l-0.8,1
		c-20.6,25.2-53.7,34.5-74.4,20.7C7.5,101.6,7.2,69.3,27.7,43.4"/>
</g>
</svg>
